<svg xmlns="http://www.w3.org/2000/svg" width="837" height="810"><path d="M0 0 C276.21 0 552.42 0 837 0 C837 267.3 837 534.6 837 810 C560.79 810 284.58 810 0 810 C0 542.7 0 275.4 0 0 Z " fill="#FEFEFE" transform="translate(0,0)"></path><path d="M0 0 C3.6756239 1.64830137 6.722137 3.89996408 9.9375 6.3125 C11.46697266 7.45138672 11.46697266 7.45138672 13.02734375 8.61328125 C16 11 16 11 18.44140625 13.49609375 C21.40275851 16.39414993 24.51482725 18.53825575 28 20.75 C28.60328125 21.14832031 29.2065625 21.54664062 29.828125 21.95703125 C33.2622914 24.15937709 36.03099739 25.27667709 40 26 C42.41574672 27.13966404 44.76579065 28.3170112 47.125 29.5625 C60.94260471 36.63324629 74.83180479 42.55371349 90 46 C79.47774383 36.48283872 79.47774383 36.48283872 68.70703125 27.25 C62.29643974 21.87769474 56.38604746 16.49284668 50.91015625 10.13671875 C48.48003426 7.41836143 45.88522653 5.21940503 43 3 C46.74098201 3 47.24080582 3.82585083 50 6.25 C68.49277679 21.42424666 90.4810963 31.97196818 112.5 40.9375 C113.17437103 41.21294647 113.84874207 41.48839294 114.54354858 41.77218628 C133.38672518 49.4286539 151.19007786 54.18967502 171.5625 54.625 C172.77623291 54.67237305 173.98996582 54.71974609 175.24047852 54.76855469 C181.51987486 54.9141266 181.51987486 54.9141266 187.17211914 52.57983398 C188.9244461 50.80627547 190.45090221 48.95130438 192 47 C194.01672784 45.15857064 196.15704792 43.48831806 198.3125 41.8125 C198.89572021 41.35689697 199.47894043 40.90129395 200.07983398 40.43188477 C205.10626267 36.56887812 210.29924495 32.96900545 215.5625 29.4375 C216.70489136 28.66853394 216.70489136 28.66853394 217.87036133 27.8840332 C223.08763445 24.43813886 227.37380459 21.68280014 233.8125 21.875 C234.99779297 21.90207031 234.99779297 21.90207031 236.20703125 21.9296875 C236.79871094 21.95289062 237.39039063 21.97609375 238 22 C237.48772011 26.54935125 237.48772011 26.54935125 235.35546875 28.51953125 C234.64003906 28.94621094 233.92460938 29.37289062 233.1875 29.8125 C232.36765625 30.32296875 231.5478125 30.8334375 230.703125 31.359375 C229.36507812 32.17148438 229.36507812 32.17148438 228 33 C220.73979519 37.57434869 213.93070155 42.49712779 207.25 47.875 C206.53384521 48.44677979 205.81769043 49.01855957 205.07983398 49.60766602 C204.41927002 50.14705811 203.75870605 50.6864502 203.078125 51.2421875 C202.18722168 51.96704346 202.18722168 51.96704346 201.27832031 52.70654297 C199.76568907 53.93399331 199.76568907 53.93399331 200 56 C202.37625177 56.10883596 204.74743976 56.18766696 207.125 56.25 C207.79015625 56.28351563 208.4553125 56.31703125 209.140625 56.3515625 C216.59180174 56.497664 220.49040762 52.42778416 225.9375 47.9375 C238.73443187 38.31191239 254.24307512 31.38664762 269.97070312 28.40478516 C272.21067971 27.95797558 274.4215917 27.42780185 276.640625 26.88671875 C300.31204384 21.24236328 300.31204384 21.24236328 309.8515625 25.17578125 C316.28635199 29.23158505 320.80654449 34.65341506 323 42 C323.44581605 45.72651883 323.50548045 49.43732126 323.5625 53.1875 C324.11700063 71.41724545 326.17453488 83.53961086 339 97 C350.91855082 110.28192748 357.4728972 125.88228352 358.5222168 143.67114258 C359.17788029 154.14916823 361.06915115 158.79675196 369 166 C370.6837269 167.99773385 372.29830853 169.98520194 373.875 172.0625 C374.49580444 172.87835571 374.49580444 172.87835571 375.12915039 173.71069336 C398.60043768 205.04024865 415.1191171 241.28062751 415.25 280.8125 C415.26571045 282.71878174 415.26571045 282.71878174 415.28173828 284.66357422 C415.2647784 292.58982254 414.45157428 299.87689681 412.875 307.625 C411.61605008 314.20797158 411.61605008 314.20797158 413.81640625 320.37890625 C416.39921042 323.14647137 419.11380601 325.55527291 422 328 C434.57884874 342.92544525 436.91372225 369.82280146 439.1875 388.375 C439.31732269 389.42716202 439.31732269 389.42716202 439.44976807 390.50057983 C442.14581238 412.90063916 442.17912093 435.64431537 439 458 C438.88172852 458.89992676 438.76345703 459.79985352 438.64160156 460.72705078 C434.81815102 489.3250988 425.26273337 539.25372633 402 559 C400.33984375 557.79557292 398.6796875 556.59114583 397.01953125 555.38671875 C394.97340013 553.91507543 394.97340013 553.91507543 392.45703125 552.71875 C389.24284824 550.47035489 388.42607459 548.40595815 386.875 544.8125 C386.27936557 543.46062016 385.68295546 542.10908192 385.0859375 540.7578125 C384.75948242 540.00661133 384.43302734 539.25541016 384.09667969 538.48144531 C382.88429566 535.73819703 381.62255618 533.02126688 380.3515625 530.3046875 C379.88121582 529.29559326 379.41086914 528.28649902 378.92626953 527.24682617 C378.0104057 525.28231236 377.09230288 523.31883994 376.17138672 521.35668945 C372.03545983 512.3965286 368.51410613 503.21683348 365 494 C364.93268677 495.78893677 364.93268677 495.78893677 364.86401367 497.61401367 C364.69041889 502.14915941 364.50227666 506.68361585 364.31030273 511.21801758 C364.22999545 513.15992106 364.15334669 515.10198017 364.08081055 517.04418945 C363.68542425 527.56146499 363.05011397 537.96930502 361.58984375 548.3984375 C361.41535957 549.6623658 361.41535957 549.6623658 361.23735046 550.951828 C358.29934349 570.45124534 348.04434287 588.15547261 332.38623047 600.24609375 C306.59671471 619.11169336 274.22103737 618.73909295 243.58276367 620.53417969 C240.14298109 620.73837512 236.70393868 620.95373476 233.26486206 621.16944695 C204.11798137 622.99707317 175.26360919 624 146 624 C146 649.74 146 675.48 146 702 C148.31 701.34 150.62 700.68 153 700 C163.04178083 699.10856254 173.50970751 700.17265057 182 706 C188.01718008 711.31778841 191.28811235 717.26994822 192.28344727 725.28149414 C192.40094698 727.59232191 192.41634411 729.87415298 192.375 732.1875 C192.36629883 733.00541016 192.35759766 733.82332031 192.34863281 734.66601562 C191.91056225 753.06497924 191.91056225 753.06497924 187.140625 757.875 C185 759 185 759 181 759 C179.078125 756.8125 179.078125 756.8125 177.25 754 C176.32960938 752.6078125 176.32960938 752.6078125 175.390625 751.1875 C174.93171875 750.465625 174.4728125 749.74375 174 749 C173.85304688 750.21236328 173.85304688 750.21236328 173.703125 751.44921875 C172.14798643 762.56309696 172.14798643 762.56309696 168 766 C165.25 766.8125 165.25 766.8125 163 767 C162.54625 766.01 162.0925 765.02 161.625 764 C156.84918977 755.75387783 147.46797862 750.91013534 139.69042969 745.78857422 C119.09917211 732.19834422 119.09917211 732.19834422 115 724 C114.45214844 724.60585938 113.90429688 725.21171875 113.33984375 725.8359375 C106.87926268 732.66419391 100.03682561 737.61353236 92.14599609 742.62890625 C88.17280805 745.16740728 84.24361526 747.77202874 80.3125 750.375 C79.54615234 750.87499512 78.77980469 751.37499023 77.99023438 751.89013672 C72.91521884 755.24141259 68.46874174 758.2396026 66 764 C61.25 763.25 61.25 763.25 59 761 C58.37407549 758.28383215 57.83932084 755.61828333 57.375 752.875 C57.2409375 752.12089844 57.106875 751.36679687 56.96875 750.58984375 C56.63876771 748.72780082 56.31845927 746.86404825 56 745 C53.36 748.3 50.72 751.6 48 755 C46.35 754.67 44.7 754.34 43 754 C37.24766467 744.13885372 37.77924929 729.04867843 39.4609375 717.9609375 C41.54300817 710.04906896 46.13251437 703.51729928 53.06665039 699.11303711 C59.48764255 695.41644622 65.05293945 694.55753443 72.3125 694.75 C73.50842773 694.75773438 73.50842773 694.75773438 74.72851562 694.765625 C78.05263401 694.81035662 80.82866943 694.94288981 84 696 C84 672.24 84 648.48 84 624 C75.09 624 66.18 624 57 624 C49.05162128 623.67893249 41.12433325 623.30943721 33.1875 622.8125 C31.599944 622.71604691 31.599944 622.71604691 29.98031616 622.61764526 C13.41635189 621.60313063 -3.12633133 620.34571518 -19.65609741 618.87631226 C-21.97968493 618.66983049 -24.30359592 618.46695174 -26.62783813 618.26797485 C-42.91150212 616.85903245 -58.78180409 615.26408731 -73.625 607.875 C-74.41640381 607.48957031 -75.20780762 607.10414063 -76.02319336 606.70703125 C-98.72740561 595.30105849 -117.41698917 577.22291674 -125.8605957 553.00708008 C-128.02991474 545.91829643 -128.55396716 538.53546281 -129.25 531.1875 C-129.40995121 529.66064866 -129.57140583 528.13395405 -129.734375 526.60742188 C-130.79586722 516.42092834 -131.47781771 506.227151 -132 496 C-132.24008789 496.62116699 -132.48017578 497.24233398 -132.72753906 497.88232422 C-140.82844853 518.73664103 -149.90703741 539.03377652 -160 559 C-163.38541875 557.68864788 -166.20464866 556.35772188 -169.125 554.1875 C-169.78757813 553.70667969 -170.45015625 553.22585938 -171.1328125 552.73046875 C-173.36267875 550.66387722 -174.53059069 548.66862498 -176 546 C-176.73257107 544.72367016 -177.46569427 543.44765714 -178.19921875 542.171875 C-200.75133507 502.28942588 -213.72293209 458.69713391 -213.4375 412.6875 C-213.43445862 411.64362122 -213.43141724 410.59974243 -213.42828369 409.52423096 C-213.29708226 378.93796923 -212.95911582 337.38237579 -190.4375 313.75 C-186.88646276 310.5257075 -183.30209587 308.10528096 -179 306 C-179.06928711 305.23268555 -179.13857422 304.46537109 -179.20996094 303.67480469 C-180.83014832 284.46895352 -181.56425186 264.83250006 -177 246 C-176.74476563 244.74574219 -176.48953125 243.49148438 -176.2265625 242.19921875 C-169.93071568 213.46358764 -153.96859136 181.35921292 -133.3046875 160.24609375 C-130.25842129 155.95550524 -130.08961335 152.58305731 -129.8125 147.4375 C-129.67283771 145.64435341 -129.53090995 143.85138184 -129.38671875 142.05859375 C-129.32274902 141.19089355 -129.2587793 140.32319336 -129.19287109 139.42919922 C-127.43029287 117.22963805 -118.40512498 97.02718043 -101.75 82 C-99.57751455 80.16872002 -97.71071013 78.84571207 -95.1875 77.5 C-89.39305359 73.52666532 -88.27407325 63.46198179 -87 57 C-86.5951228 52.76994458 -86.4921898 48.56007478 -86.4375 44.3125 C-86.12330456 25.12330456 -86.12330456 25.12330456 -82 21 C-69.77802781 19.17493194 -58.01387085 21.77783073 -46.1875 24.6875 C-45.49147675 24.85731384 -44.79545349 25.02712769 -44.07833862 25.2020874 C-31.73855756 28.24896037 -19.17425109 31.62028167 -8.125 38.0625 C-7.46991455 38.43173584 -6.8148291 38.80097168 -6.13989258 39.18139648 C-0.94622261 42.20531603 3.63434366 45.80738546 8.3125 49.5625 C12.98045882 53.29243005 16.27276106 55.77392025 22.5 55.75 C25.03426983 55.48272442 25.03426983 55.48272442 27 55 C19.28418794 48.74532179 11.65142639 43.4252587 2.80078125 38.88671875 C-0.29009204 36.80458235 -1.05451272 35.54405233 -2 32 C-1 31 -1 31 2.5 30.6875 C11.55221804 30.84165698 18.7696801 36.67285599 25.6875 41.9375 C26.91049805 42.84918945 26.91049805 42.84918945 28.15820312 43.77929688 C31.63166694 46.38228876 35.00442039 48.98326271 38.203125 51.91796875 C41.48005813 54.35736171 43.03607591 54.57242467 47.0625 54.375 C48.06410156 54.34148437 49.06570313 54.30796875 50.09765625 54.2734375 C52.79391067 54.01941622 55.35919416 53.59115287 58 53 C53.82770465 48.61251463 49.53807139 44.5401577 44.8125 40.75 C40.54017567 37.32268588 36.4922724 33.74293958 32.5 30 C28.64647085 26.38967938 24.755385 22.9219542 20.625 19.625 C15.83197069 15.77637498 11.30834092 11.68731317 6.8125 7.5 C6.13977051 6.87561035 5.46704102 6.2512207 4.77392578 5.60791016 C4.15372559 5.0257373 3.53352539 4.44356445 2.89453125 3.84375 C2.05692261 3.05774414 2.05692261 3.05774414 1.20239258 2.25585938 C0 1 0 1 0 0 Z " fill="#6592C3" transform="translate(316,25)"></path><path d="M0 0 C1.13429443 0.54503174 1.13429443 0.54503174 2.29150391 1.10107422 C37.23243459 18.3191323 55.92565894 55.65130442 68 91 C70.9141376 99.68990583 73.22036812 108.48755526 75.1875 117.4375 C75.4201355 118.4725769 75.4201355 118.4725769 75.6574707 119.52856445 C78.56242696 133.50243306 79.33527959 147.64680585 79.26074219 161.87915039 C79.24992634 164.32918578 79.26077215 166.77850074 79.2734375 169.22851562 C79.28139363 178.34028259 78.7285768 187.02252598 77 196 C76.80019531 197.1859375 76.60039062 198.371875 76.39453125 199.59375 C72.95641316 216.76126584 67.08915381 233.02285551 58 248 C57.65195312 248.58233398 57.30390625 249.16466797 56.9453125 249.76464844 C46.9647442 266.0581138 31.51768026 281.45290065 15 291 C14.39752441 291.36061523 13.79504883 291.72123047 13.17431641 292.09277344 C-17.15202421 310.09736507 -52.55081713 316.16204222 -87 308 C-88.44439453 307.72736328 -88.44439453 307.72736328 -89.91796875 307.44921875 C-126.09393523 299.94870102 -157.16038208 274.20886042 -177.2734375 244.09326172 C-182.7096456 235.52889076 -186.5231951 226.47559067 -190 217 C-190.57041016 215.55947266 -190.57041016 215.55947266 -191.15234375 214.08984375 C-199.73814532 191.05397614 -199.77594751 162.65868455 -194 139 C-193.75636719 137.85273438 -193.51273438 136.70546875 -193.26171875 135.5234375 C-181.64811753 85.87666828 -147.35217305 41.33184281 -104.53125 14.45019531 C-72.08417858 -5.60520748 -36.66623251 -17.85882296 0 0 Z " fill="#FDFDFE" transform="translate(344,129)"></path><path d="M0 0 C1.01421524 0.0007251 1.01421524 0.0007251 2.04891968 0.00146484 C14.46923301 0.06284573 25.48254884 1.99806925 37.0625 6.5625 C37.84367188 6.86220703 38.62484375 7.16191406 39.4296875 7.47070312 C68.79559332 18.95852841 94.52588342 40.09865914 114.0625 64.5625 C114.72121094 65.35398437 115.37992188 66.14546875 116.05859375 66.9609375 C141.34072868 97.58436854 159.27177542 136.28862476 159.3125 176.3125 C159.31350708 176.99858337 159.31451416 177.68466675 159.31555176 178.39154053 C159.28717803 207.05318264 152.37720958 233.28698877 135.0625 256.5625 C134.66337402 257.10680664 134.26424805 257.65111328 133.85302734 258.21191406 C111.32293841 288.75098077 80.4011541 308.32484048 43.0625 315.5625 C42.08925781 315.76746094 41.11601563 315.97242188 40.11328125 316.18359375 C7.76418117 322.18950862 -28.93677803 313.97991778 -56.125 295.625 C-58.41796875 293.97265625 -58.41796875 293.97265625 -59.9375 292.5625 C-59.9375 291.9025 -59.9375 291.2425 -59.9375 290.5625 C-60.8293399 290.15569 -60.8293399 290.15569 -61.73919678 289.74066162 C-63.90507213 288.57987944 -65.35791541 287.41812403 -67.11035156 285.71191406 C-68.00213104 284.84895721 -68.00213104 284.84895721 -68.91192627 283.96856689 C-69.54427185 283.34472107 -70.17661743 282.72087524 -70.828125 282.078125 C-71.49156921 281.42608093 -72.15501343 280.77403687 -72.83856201 280.10223389 C-74.24333317 278.7163475 -75.64522274 277.32753509 -77.04443359 275.93603516 C-79.15227683 273.84740216 -81.2804767 271.78117238 -83.41015625 269.71484375 C-94.69152379 258.61061389 -102.17349429 247.35111257 -107.56640625 232.3671875 C-107.79473145 231.73393555 -108.02305664 231.10068359 -108.25830078 230.44824219 C-108.48243652 229.82594727 -108.70657227 229.20365234 -108.9375 228.5625 C-109.37964844 227.38945312 -109.82179688 226.21640625 -110.27734375 225.0078125 C-124.50205374 184.10636677 -120.54121943 132.55897265 -104.9375 92.5625 C-103.93791411 90.89558494 -102.93785618 89.22895291 -101.9375 87.5625 C-100.66325003 84.84105824 -99.4966381 82.07410568 -98.3125 79.3125 C-91.98166824 64.90019321 -84.96603146 51.66351323 -75.24560547 39.23779297 C-74.03246839 37.68412619 -72.84514428 36.11039763 -71.66015625 34.53515625 C-54.46489638 12.36477599 -27.85546609 -0.05542342 0 0 Z " fill="#FDFDFE" transform="translate(559.9375,128.4375)"></path><path d="M0 0 C41.89814816 18.55215485 72.06144507 67.80261894 88.34619141 108.35205078 C94.7880721 125.07574481 100.17453104 141.24674545 100.1875 159.3125 C100.19974609 160.19873047 100.21199219 161.08496094 100.22460938 161.99804688 C100.24051632 169.26751923 99.30307466 176.09077603 97 183 C81.36233392 184.46497613 65.72306928 185.92462074 50.0625 187.125 C48.65230591 187.23787354 48.65230591 187.23787354 47.21362305 187.35302734 C43.81048425 187.60553201 40.40719229 187.80910611 37 188 C36.24814423 188.04343536 35.49628845 188.08687073 34.72164917 188.13162231 C11.98630201 189.38252372 -10.79660935 189.18738553 -33.55786133 189.18530273 C-38.18648246 189.18522222 -42.81500303 189.19205677 -47.44360352 189.20581055 C-77.15666106 189.29276428 -106.7657568 188.76897377 -136.44643116 187.34986782 C-144.94363605 186.94534034 -153.44157292 186.65565911 -161.9450531 186.41752625 C-175.90126517 185.99379809 -175.90126517 185.99379809 -180.5 181.625 C-188.7326881 167.21779583 -182.02299627 143.22170623 -177.94824219 128.15332031 C-173.50377502 112.28674368 -167.74851783 97.53597918 -160 83 C-159.64534668 82.32936523 -159.29069336 81.65873047 -158.92529297 80.96777344 C-148.35274359 61.11630196 -134.43078301 43.32761485 -119 27 C-118.11183594 26.04738281 -117.22367187 25.09476562 -116.30859375 24.11328125 C-108.93409687 16.37118102 -100.84784956 9.98712538 -92 4 C-91.11183594 3.38253906 -90.22367187 2.76507813 -89.30859375 2.12890625 C-87 1 -87 1 -84.96484375 0.96875 C-81.97757644 2.53661992 -80.55135674 4.79005692 -78.5625 7.5 C-77.673474 8.69423151 -76.78413555 9.88823047 -75.89453125 11.08203125 C-75.4248291 11.71963379 -74.95512695 12.35723633 -74.47119141 13.01416016 C-71.93674411 16.43520136 -69.34025953 19.80864512 -66.75 23.1875 C-65.9451416 24.24046265 -65.9451416 24.24046265 -65.12402344 25.31469727 C-60.87440304 30.87184506 -56.60100083 36.41030868 -52.3125 41.9375 C-51.71211914 42.71311279 -51.11173828 43.48872559 -50.49316406 44.2878418 C-49.93467773 45.00625244 -49.37619141 45.72466309 -48.80078125 46.46484375 C-48.30747314 47.100271 -47.81416504 47.73569824 -47.3059082 48.39038086 C-45.94727244 50.12180057 -45.94727244 50.12180057 -44 52 C-41.58770789 52.16275046 -41.58770789 52.16275046 -39 51 C-36.98303794 48.91390214 -35.29410277 46.92853246 -33.5625 44.625 C-33.0480835 43.96161621 -32.53366699 43.29823242 -32.00366211 42.61474609 C-26.73734746 35.77666822 -21.65181616 28.79935552 -16.55859375 21.83203125 C-11.15774829 14.46479318 -5.57648756 7.23461259 0 0 Z " fill="#FEFEFE" transform="translate(473,456)"></path><path d="M0 0 C3.18448165 1.59224083 3.77412914 4.9047427 5.0625 8.0625 C17.94373248 38.34361954 39.1255967 61.68505968 67 79 C67.57669434 79.35980957 68.15338867 79.71961914 68.74755859 80.09033203 C102.7614924 100.85005576 149.26876104 104.51736933 187.59326172 95.38183594 C198.10805696 92.69095707 208.0704082 88.97702596 217.91015625 84.41796875 C221 83 221 83 224 82 C239.26964975 101.42601729 239.26964975 101.42601729 245 110 C242.29855648 113.068068 238.94350981 115.00449369 235.5 117.125 C228.90368347 121.28139604 222.89056506 125.8812409 217 131 C216.1234375 131.75410156 215.246875 132.50820313 214.34375 133.28515625 C209.81574829 137.2607963 205.62999137 141.3278757 201.75390625 145.94140625 C200.54841061 147.35631984 199.30328016 148.73810914 198.02734375 150.08984375 C184.89765961 164.02970804 175.03798824 180.21564521 166 197 C165.61473145 197.70866211 165.22946289 198.41732422 164.83251953 199.14746094 C156.20154164 215.15911661 149.84659107 232.48618228 145 250 C144.6803125 251.14726563 144.360625 252.29453125 144.03125 253.4765625 C141.2239794 265.19951659 141.70976274 277.01989904 142 289 C124.67515079 289.81069485 104.49255962 288.4397829 88.84765625 280.375 C86.07678111 278.78259092 86.07678111 278.78259092 83 279 C81.94997694 277.36438716 80.95818435 275.69105308 80 274 C78.61450488 272.45071573 77.19547015 270.93098402 75.75 269.4375 C57.96475709 249.94603053 56.69260172 225.15209502 55.06469727 200.11132812 C54.81388415 196.27119244 54.54576688 192.4325525 54.27539062 188.59375 C53.51683066 177.51800603 52.84238095 166.46437453 52.82421875 155.359375 C52.82267288 154.54301575 52.82112701 153.72665649 52.8195343 152.88555908 C52.84688626 149.66742949 52.97545842 147.07362473 54 144 C53.42507812 143.72285156 52.85015625 143.44570313 52.2578125 143.16015625 C50.04479811 142.0230191 47.97283971 140.77357662 45.875 139.4375 C43.93458437 138.20368855 42.05695975 137.02847987 40 136 C39.70359619 136.83442627 39.40719238 137.66885254 39.10180664 138.52856445 C30.58554815 162.44603794 21.66482878 185.94497496 11 209 C10.60312988 209.86141602 10.20625977 210.72283203 9.79736328 211.61035156 C7.88727305 215.75098866 5.95890273 219.88216573 4 224 C0.49559721 220.75938949 -1.12392552 217.08728444 -3.125 212.8125 C-3.51461914 211.98169922 -3.90423828 211.15089844 -4.30566406 210.29492188 C-18.01080185 180.46673908 -28.12251741 146.69958542 -28.16796875 113.63671875 C-28.17129715 112.76465286 -28.17462555 111.89258698 -28.17805481 110.99409485 C-28.18308807 109.1545158 -28.18546426 107.31492773 -28.18530273 105.4753418 C-28.18746434 102.73274616 -28.2055898 99.99057028 -28.22460938 97.24804688 C-28.27989062 79.90855211 -26.96057154 62.9099185 -23 46 C-22.83661133 45.26426758 -22.67322266 44.52853516 -22.50488281 43.77050781 C-18.63561092 26.51255388 -12.85316481 12.43174957 0 0 Z " fill="#77A5D0" transform="translate(141,343)"></path><path d="M0 0 C3.92209728 1.30736576 5.78946897 3.64217289 8 7 C9.03661459 9.61541514 9.8531004 11.99298177 10.5625 14.6875 C10.86873291 15.79291138 10.86873291 15.79291138 11.18115234 16.9206543 C17.50019975 40.3011297 20.57766514 63.41644506 20.4375 87.625 C20.43479095 88.72362366 20.43208191 89.82224731 20.42929077 90.9541626 C20.36817139 107.30233284 19.67981085 123.01113181 16 139 C15.81276367 139.86995605 15.62552734 140.73991211 15.43261719 141.63623047 C9.95101549 166.93775125 1.35458744 195.87065519 -14 217 C-14.66 217.33 -15.32 217.66 -16 218 C-25.04043278 199.63419244 -32.77921649 180.6627736 -39.625 161.375 C-39.95564453 160.45831543 -40.28628906 159.54163086 -40.62695312 158.59716797 C-42.09150432 154.36423868 -43.11959174 150.6191558 -43.37109375 146.13671875 C-43.66780907 142.60580644 -43.86111237 142.15003431 -46.43359375 139.37109375 C-47.42488281 138.73300781 -48.41617188 138.09492188 -49.4375 137.4375 C-50.92056641 136.44556641 -50.92056641 136.44556641 -52.43359375 135.43359375 C-54.80106468 133.83744252 -54.80106468 133.83744252 -57 134 C-57.85425375 142.4917384 -58.29748512 150.95583796 -58.60546875 159.48242188 C-58.77833651 163.90247179 -59.00130027 168.27670081 -59.5078125 172.671875 C-59.98086768 177.07469203 -60.12746121 181.46231626 -60.2109375 185.88671875 C-60.23241852 186.95316368 -60.23241852 186.95316368 -60.2543335 188.04115295 C-60.31160514 190.99115599 -60.3660688 193.94100045 -60.40136719 196.89135742 C-60.71680709 221.31347594 -66.29819678 243.21027392 -84 261 C-84.73734375 261.77214844 -85.4746875 262.54429687 -86.234375 263.33984375 C-93.19207695 270.16913174 -101.1699335 274.13089202 -110 278 C-110.81339844 278.3609375 -111.62679687 278.721875 -112.46484375 279.09375 C-123.26224322 283.23862503 -135.61111672 283.1391935 -147 283 C-146.96072388 281.93809448 -146.96072388 281.93809448 -146.9206543 280.85473633 C-146.40716111 264.75964982 -147.1536749 250.38851824 -152 235 C-152.25700684 234.16952148 -152.51401367 233.33904297 -152.77880859 232.48339844 C-164.29863228 195.9509189 -184.66388205 161.81416539 -211 134 C-211.84046875 133.10667969 -212.6809375 132.21335937 -213.546875 131.29296875 C-223.84087393 120.65682824 -235.25947996 112.46498555 -248 105 C-245.7056767 100.97185583 -243.04028454 97.32950121 -240.1875 93.6875 C-239.29780445 92.54195598 -238.40848093 91.39612292 -237.51953125 90.25 C-236.87491943 89.42048828 -236.87491943 89.42048828 -236.21728516 88.57421875 C-233.77220606 85.41219107 -231.38812104 82.20510982 -229 79 C-225.12563341 80.46539696 -221.53832026 82.25873981 -217.875 84.1875 C-178.97040593 103.80282679 -133.31215824 105.20903544 -92.0859375 92.15234375 C-77.57229032 87.23266141 -63.21480778 80.31637881 -51 71 C-50.13246094 70.35160156 -49.26492188 69.70320313 -48.37109375 69.03515625 C-26.35264726 51.82423083 -6.32474491 27.89545387 0 0 Z " fill="#77A5D0" transform="translate(724,348)"></path><path d="M0 0 C3.6756239 1.64830137 6.722137 3.89996408 9.9375 6.3125 C11.46697266 7.45138672 11.46697266 7.45138672 13.02734375 8.61328125 C16 11 16 11 18.44140625 13.49609375 C21.40275851 16.39414993 24.51482725 18.53825575 28 20.75 C28.60328125 21.14832031 29.2065625 21.54664062 29.828125 21.95703125 C33.2622914 24.15937709 36.03099739 25.27667709 40 26 C42.41574672 27.13966404 44.76579065 28.3170112 47.125 29.5625 C60.94260471 36.63324629 74.83180479 42.55371349 90 46 C79.47774383 36.48283872 79.47774383 36.48283872 68.70703125 27.25 C62.29643974 21.87769474 56.38604746 16.49284668 50.91015625 10.13671875 C48.48003426 7.41836143 45.88522653 5.21940503 43 3 C46.74098201 3 47.24080582 3.82585083 50 6.25 C68.49277679 21.42424666 90.4810963 31.97196818 112.5 40.9375 C113.17437103 41.21294647 113.84874207 41.48839294 114.54354858 41.77218628 C137.88716014 51.25729646 158.92520601 54.50191641 184 55 C180.50098316 59.12693077 176.94429574 63.17036798 173.25 67.125 C147.49766491 95.49883028 122.13980881 141.79430101 123 181 C123.40089844 179.79988281 123.80179688 178.59976563 124.21484375 177.36328125 C157.26411033 79.86794483 157.26411033 79.86794483 191 63 C195.59363509 62.69375766 199.77233186 63.24508997 204.3125 64 C214.56975811 65.60967281 221.2613216 66.14656598 230 60 C231.42700541 58.90922778 232.84345789 57.80453526 234.25 56.6875 C254.31653832 40.84730451 281.43662159 32.8315983 307 33 C308.7769679 34.7769679 308.17221628 37.39455927 308.2109375 39.80078125 C308.23929688 41.00669922 308.26765625 42.21261719 308.296875 43.45507812 C308.34808543 45.98359294 308.39259723 48.51225427 308.4296875 51.04101562 C308.69439997 61.48061381 309.40511321 75.46762399 317.33935547 83.32666016 C318.98041883 84.84160619 320.64099271 86.3312189 322.3125 87.8125 C335.46666884 99.4846118 342.58562648 115.50891408 344 133 C344.11394369 135.69395432 344.10575402 138.30327252 344 141 C343.01 140.236875 342.02 139.47375 341 138.6875 C306.69219832 113.07745086 269.40247265 96.30844786 225.70751953 101.38232422 C213.80173548 103.37358401 202.76130233 107.63726443 192 113 C190.97261719 113.50660156 189.94523437 114.01320313 188.88671875 114.53515625 C159.94104521 129.5484724 142.50068451 160.68308415 131 190 C130.72414063 190.68900391 130.44828125 191.37800781 130.1640625 192.08789062 C124.91690736 205.32267054 121.98883757 219.11135554 119 233 C118.67 233 118.34 233 118 233 C117.88519287 232.38294189 117.77038574 231.76588379 117.65209961 231.13012695 C115.50503927 219.78018075 113.15938465 208.59511355 109.5 197.625 C109.22792725 196.80169189 108.95585449 195.97838379 108.67553711 195.13012695 C106.92109341 190.06041807 104.75755401 185.33879061 102.30322266 180.57177734 C100.97489444 177.95045673 99.74244548 175.30052822 98.52734375 172.625 C83.85407333 140.57898444 63.79062405 114.00689975 30 101 C19.43373878 97.2874663 9.22406069 95.19849625 -2 95 C-2 95.33 -2 95.66 -2 96 C-3.21393433 96.00616333 -3.21393433 96.00616333 -4.45239258 96.01245117 C-20.52526915 96.15495132 -35.71543995 96.49094884 -51 102 C-51.8161377 102.28794434 -52.63227539 102.57588867 -53.47314453 102.87255859 C-76.75774409 111.23761866 -97.27072865 124.18214342 -115.1640625 141.3046875 C-117 143 -117 143 -118 143 C-118.44560813 128.2577977 -111.38621391 110.56026531 -101.5625 99.5 C-100.05985322 97.98178175 -98.53891956 96.4814387 -97 95 C-96.20980469 94.17628906 -95.41960937 93.35257812 -94.60546875 92.50390625 C-88.7202923 86.40401357 -88.7202923 86.40401357 -85.40234375 84.54296875 C-82.57059962 82.72420626 -81.72558968 81.27335466 -80.3125 78.25 C-79.91675781 77.43015625 -79.52101562 76.6103125 -79.11328125 75.765625 C-76.74627985 69.88549521 -75.75114497 64.64597353 -75.69140625 58.30859375 C-75.66626214 56.85481342 -75.6408639 55.40103747 -75.61523438 53.94726562 C-75.58647745 51.68726598 -75.56241589 49.42734175 -75.54370117 47.16723633 C-75.52195777 44.96398432 -75.48253902 42.76155693 -75.44140625 40.55859375 C-75.42795166 39.25204834 -75.41449707 37.94550293 -75.40063477 36.59936523 C-74.97510177 32.77631046 -73.9235469 30.30201973 -72 27 C-59.05888562 26.84669953 -46.72404085 28.13522775 -34.32421875 31.98046875 C-30.90405259 33.02942688 -27.47961104 33.92039782 -24 34.75 C-22.989375 34.99234375 -21.97875 35.2346875 -20.9375 35.484375 C-18.01397084 36.11241833 -18.01397084 36.11241833 -15.06640625 35.8359375 C-11.00408938 36.05328439 -8.28524494 37.75127979 -4.9375 39.875 C-3.95958496 40.47042603 -3.95958496 40.47042603 -2.96191406 41.07788086 C0.98430076 43.53684563 4.57597119 46.22758687 8.13574219 49.21191406 C12.70317961 53.03330907 16.06775425 55.63297541 22.3125 55.625 C24.92789189 55.40017049 24.92789189 55.40017049 27 55 C19.28418794 48.74532179 11.65142639 43.4252587 2.80078125 38.88671875 C-0.29009204 36.80458235 -1.05451272 35.54405233 -2 32 C-1 31 -1 31 2.5 30.6875 C11.55221804 30.84165698 18.7696801 36.67285599 25.6875 41.9375 C26.91049805 42.84918945 26.91049805 42.84918945 28.15820312 43.77929688 C31.63166694 46.38228876 35.00442039 48.98326271 38.203125 51.91796875 C41.48005813 54.35736171 43.03607591 54.57242467 47.0625 54.375 C48.06410156 54.34148437 49.06570313 54.30796875 50.09765625 54.2734375 C52.79391067 54.01941622 55.35919416 53.59115287 58 53 C53.82770465 48.61251463 49.53807139 44.5401577 44.8125 40.75 C40.54017567 37.32268588 36.4922724 33.74293958 32.5 30 C28.64647085 26.38967938 24.755385 22.9219542 20.625 19.625 C15.83197069 15.77637498 11.30834092 11.68731317 6.8125 7.5 C6.13977051 6.87561035 5.46704102 6.2512207 4.77392578 5.60791016 C4.15372559 5.0257373 3.53352539 4.44356445 2.89453125 3.84375 C2.33612549 3.31974609 1.77771973 2.79574219 1.20239258 2.25585938 C0 1 0 1 0 0 Z " fill="#77A5D0" transform="translate(316,25)"></path><path d="M0 0 C3.22124124 1.65771807 5.55710018 4.14554584 8.06639099 6.7043457 C8.9450885 7.58238609 8.9450885 7.58238609 9.84153748 8.47816467 C11.77492188 10.41363813 13.69746508 12.3595188 15.62010193 14.30566406 C16.95894471 15.65010236 18.29845163 16.99387959 19.63859558 18.33702087 C23.16335131 21.87322876 26.67900512 25.41835333 30.19285583 28.96539307 C33.78035117 32.58358106 37.37635828 36.19328722 40.97166443 39.80371094 C48.02430465 46.88852188 55.06736093 53.9827793 62.10447693 61.08300781 C60.15294389 64.37486861 58.14254649 67.46679402 55.80369568 70.49707031 C55.16351501 71.33069092 54.52333435 72.16431152 53.86375427 73.02319336 C53.18006775 73.90918213 52.49638123 74.7951709 51.79197693 75.70800781 C46.44527619 82.67541587 41.16142381 89.67973413 35.97947693 96.77050781 C30.87235032 103.74609537 25.64881503 110.61707113 20.30784607 117.4152832 C17.30453962 121.23979631 14.34136974 125.08632272 11.44041443 128.98925781 C10.84881531 129.78058105 10.25721619 130.5719043 9.64768982 131.38720703 C8.51665756 132.9038656 7.393095 134.42613108 6.27806091 135.95458984 C5.77347351 136.6286084 5.26888611 137.30262695 4.74900818 137.99707031 C4.30919617 138.59471191 3.86938416 139.19235352 3.41624451 139.80810547 C2.10447693 141.08300781 2.10447693 141.08300781 -0.89552307 141.08300781 C-2.6362428 139.16667565 -4.16723991 137.27752112 -5.70802307 135.20800781 C-6.69740124 133.91227821 -7.68699484 132.61671309 -8.67677307 131.32128906 C-9.20013245 130.62986816 -9.72349182 129.93844727 -10.26271057 129.22607422 C-11.90291565 127.07330505 -13.56636827 124.94091192 -15.23927307 122.81347656 C-24.91559124 110.5024085 -34.24729308 97.95159048 -43.38380432 85.23535156 C-43.94873596 84.449104 -44.5136676 83.66285645 -45.09571838 82.8527832 C-46.19631711 81.32012728 -47.29595603 79.7867816 -48.39454651 78.25268555 C-51.95104173 73.31181625 -55.64386884 68.55865307 -59.60255432 63.93066406 C-60.89552307 62.08300781 -60.89552307 62.08300781 -60.89552307 59.08300781 C-59.17286682 57.32128906 -59.17286682 57.32128906 -56.83302307 55.39550781 C-53.89238041 52.96759259 -51.31591781 50.46765448 -48.85157776 47.5703125 C-41.71476121 39.35731624 -33.88349968 31.7666318 -26.21559143 24.05297852 C-24.19811917 22.02204987 -22.18821497 19.98404329 -20.18434143 17.93969727 C-17.74932469 15.4555415 -15.30242486 12.98371993 -12.84628868 10.52044868 C-11.46439205 9.12856995 -10.09469146 7.72461698 -8.72518921 6.32054138 C-7.88719284 5.48539505 -7.04919647 4.65024872 -6.18580627 3.78979492 C-5.45191177 3.04781357 -4.71801727 2.30583221 -3.96188354 1.54136658 C-1.89552307 0.08300781 -1.89552307 0.08300781 0 0 Z " fill="#DABD9D" transform="translate(431.89552307128906,359.9169921875)"></path><path d="M0 0 C0 46.2 0 92.4 0 140 C-3.79540003 138.73486666 -4.49383706 137.29444127 -6.8125 134.0625 C-7.61533821 132.95958898 -8.42015492 131.85811643 -9.2265625 130.7578125 C-9.88833496 129.85337402 -9.88833496 129.85337402 -10.56347656 128.93066406 C-13.20451244 125.38115493 -15.95568694 121.9172735 -18.6875 118.4375 C-27.21018349 107.53035702 -35.4118902 96.39310244 -43.48828125 85.15234375 C-44.05321289 84.36609619 -44.61814453 83.57984863 -45.20019531 82.76977539 C-46.30079404 81.23711947 -47.40043296 79.70377378 -48.49902344 78.16967773 C-52.05551866 73.22880844 -55.74834577 68.47564525 -59.70703125 63.84765625 C-61 62 -61 62 -61 59 C-59.27734375 57.23828125 -59.27734375 57.23828125 -56.9375 55.3125 C-53.99629601 52.88412132 -51.42270072 50.38494707 -48.96044922 47.48510742 C-44.51967702 42.37446074 -39.76327196 37.60122906 -34.98046875 32.8125 C-34.03112332 31.85993377 -33.08184994 30.90729572 -32.13264465 29.95458984 C-30.16025573 27.97626387 -28.18586311 25.99996333 -26.21020508 24.02490234 C-23.67529143 21.49009133 -21.14738734 18.94840764 -18.62108898 16.40501404 C-16.67116336 14.44400847 -14.71674895 12.48752558 -12.76101112 10.53231812 C-11.37197896 9.14153107 -9.98749611 7.74620528 -8.60307312 6.35083008 C-7.76492569 5.51575928 -6.92677826 4.68068848 -6.06323242 3.8203125 C-5.3248967 3.08055176 -4.58656097 2.34079102 -3.82585144 1.57861328 C-2 0 -2 0 0 0 Z " fill="#F3D2AA" transform="translate(432,360)"></path><path d="M0 0 C1.22847656 0.00644531 2.45695313 0.01289063 3.72265625 0.01953125 C6.9375 0.1875 6.9375 0.1875 9.9375 1.1875 C9.0625 8.8125 9.0625 8.8125 7.9375 12.1875 C7.36816169 19.47940992 7.44427482 26.60464936 10.9375 33.1875 C13.49250471 35.94421561 14.8497848 37.03211211 18.5625 37.5625 C21.19763819 37.31606714 21.19763819 37.31606714 23.9375 35.1875 C27.125 35.0625 27.125 35.0625 29.9375 35.1875 C30.64852955 51.14616317 29.55929062 67.48798555 18.4375 80 C11.24424666 86.29409667 6.5322926 88.71277636 -3.1328125 88.48828125 C-10.3477677 87.74754585 -14.63604111 83.2522992 -19.19921875 77.8828125 C-29.16957742 63.46028109 -28.84529042 42.81913792 -25.9375 26.125 C-23.39735632 15.20475613 -18.73538094 7.13337469 -9.29296875 1.046875 C-6.14600676 -0.16561473 -3.35981845 -0.03886225 0 0 Z " fill="#4F5158" transform="translate(565.0625,246.8125)"></path><path d="M0 0 C-0.32355469 0.9590625 -0.64710938 1.918125 -0.98046875 2.90625 C-2.2703166 7.44067532 -2.33101657 11.81160452 -2.3125 16.5 C-2.32861328 17.31597656 -2.34472656 18.13195312 -2.36132812 18.97265625 C-2.36630575 25.17477912 -1.46998074 30.17716487 2.75 35 C6.09465813 36.48651472 8.50963998 35.84027186 12 35 C12.66 34.34 13.32 33.68 14 33 C16.625 32.875 16.625 32.875 19 33 C19.76286362 49.24547412 19.47962954 65.11910112 8 78 C1.67021654 83.96808155 -4.9998587 86.56112228 -13.734375 86.30859375 C-19.97030482 85.4592171 -24.72547757 82.12418572 -28.5546875 77.23828125 C-38.26568655 62.1993557 -40.11226217 45.08563468 -36.875 27.75 C-34.46490179 17.88436434 -30.78447352 8.65652666 -22 3 C-21.40574219 2.59007812 -20.81148438 2.18015625 -20.19921875 1.7578125 C-14.57461793 -1.61927702 -6.04891477 -3.02445738 0 0 Z " fill="#505158" transform="translate(304,246)"></path><path d="M0 0 C2.64 0 5.28 0 8 0 C7.99476318 1.07883957 7.98952637 2.15767914 7.98413086 3.26921082 C7.93998314 13.43674811 7.93778591 23.60354457 7.97665405 33.7711134 C7.995289 38.9985044 7.9991468 44.22503603 7.96923828 49.45239258 C7.94091689 54.49735804 7.95140613 59.54088773 7.98880005 64.58577919 C7.99624622 66.51028456 7.98971043 68.43489649 7.96896362 70.35930443 C7.9422752 73.05649956 7.96531679 75.74903732 8 78.44604492 C7.98058853 79.24158279 7.96117706 80.03712067 7.94117737 80.85676575 C8.00182126 83.16519784 8.13230499 84.85626975 9 87 C10.92308282 88.69675778 12.80998274 89.84433097 15.08984375 91.01166248 C17 92 17 92 19 94 C19 98.17897412 16.99159597 100.95871018 14.2421875 103.984375 C6.91963728 110.56701597 -1.93339737 115.4808559 -10.5 120.25 C-16.47392566 123.58837022 -21.16508482 127.16508482 -26 132 C-26.66 126.39 -27.32 120.78 -28 115 C-29.98 115 -31.96 115 -34 115 C-34.226875 115.5775 -34.45375 116.155 -34.6875 116.75 C-36.33708262 119.57785592 -38.39710359 121.04782769 -41 123 C-41.99 123.99 -41.99 123.99 -43 125 C-45.92974308 120.01724493 -45.36824992 114.87956477 -45.375 109.25 C-45.39949219 108.19039062 -45.42398437 107.13078125 -45.44921875 106.0390625 C-45.47845618 98.1839383 -44.07832251 93.07511265 -39.359375 86.828125 C-31.84867576 79.46326458 -26.13809933 77.64727015 -15.63500977 77.61938477 C-11.84429618 77.70299337 -9.30686919 78.23351005 -6 80 C-4.35 80 -2.7 80 -1 80 C-0.67 53.6 -0.34 27.2 0 0 Z " fill="#F1D1AA" transform="translate(407,649)"></path><path d="M0 0 C1.98 0 3.96 0 6 0 C6 26.4 6 52.8 6 80 C10.455 79.01 10.455 79.01 15 78 C25.47312724 77.01992498 34.17361322 78.18449078 42.75 84.5 C48.10911445 89.59179521 51.51915449 96.18302284 52.44140625 103.50390625 C52.56193015 110.82372427 51.62894146 117.87338112 50 125 C48.87411986 124.04270084 47.7493285 123.08412105 46.625 122.125 C45.99851562 121.59132813 45.37203125 121.05765625 44.7265625 120.5078125 C43.44163349 119.38567993 42.20628025 118.20628025 41 117 C39.01178687 116.60235737 37.01055661 116.26224651 35 116 C35.061875 116.969375 35.12375 117.93875 35.1875 118.9375 C35.21634386 123.6294351 33.61561381 127.65553028 32 132 C25.14430285 127.45838108 18.33603749 122.85073406 11.5625 118.1875 C10.58990234 117.52685547 9.61730469 116.86621094 8.61523438 116.18554688 C-7.95278067 104.75284177 -7.95278067 104.75284177 -13 97 C-13.125 94.5625 -13.125 94.5625 -12 92 C-8.6783237 88.98187114 -5.0026078 87.0013039 -1 85 C-0.67 56.95 -0.34 28.9 0 0 Z " fill="#F2D2AA" transform="translate(449,650)"></path><path d="M0 0 C7.59 0 15.18 0 23 0 C23 28.38 23 56.76 23 86 C14 91 14 91 12 91 C11.46375 90.443125 10.9275 89.88625 10.375 89.3125 C8.27568473 86.93929269 8.27568473 86.93929269 6.04553223 86.32820129 C3.2524964 85.25907794 1.89515389 84.34485982 0 82 C-1.19379591 75.87549868 -0.92933416 69.78977867 -0.78125 63.57421875 C-0.76632319 61.7429298 -0.75493824 59.91160884 -0.74694824 58.08027649 C-0.71644813 53.26747949 -0.63790527 48.45662383 -0.54931641 43.64459229 C-0.46737793 38.73142765 -0.43091979 33.81794828 -0.390625 28.90429688 C-0.3049063 19.26854239 -0.16422667 9.63473657 0 0 Z " fill="#FCFDFE" transform="translate(419,650)"></path><path d="M0 0 C1.18529297 0.02707031 1.18529297 0.02707031 2.39453125 0.0546875 C2.98621094 0.07789063 3.57789063 0.10109375 4.1875 0.125 C3.67522011 4.67435125 3.67522011 4.67435125 1.54296875 6.64453125 C0.82753906 7.07121094 0.11210938 7.49789062 -0.625 7.9375 C-1.44484375 8.44796875 -2.2646875 8.9584375 -3.109375 9.484375 C-4.44742188 10.29648437 -4.44742188 10.29648437 -5.8125 11.125 C-13.84791341 16.18777492 -21.2006373 21.71825541 -28.46899414 27.82055664 C-29.44533813 28.63447876 -29.44533813 28.63447876 -30.44140625 29.46484375 C-31.01963135 29.95331787 -31.59785645 30.44179199 -32.19360352 30.94506836 C-33.8125 32.125 -33.8125 32.125 -36.8125 33.125 C-37.10125 33.723125 -37.39 34.32125 -37.6875 34.9375 C-39.17963677 37.83887704 -41.25895703 39.08216562 -43.8125 41.125 C-45.56033096 42.9992327 -47.21905646 44.93416426 -48.87890625 46.88671875 C-50.16618688 48.3768436 -51.48708831 49.83858185 -52.83984375 51.26953125 C-81.10569557 81.27324738 -98.59835225 123.27296218 -110.8125 162.125 C-111.1425 162.125 -111.4725 162.125 -111.8125 162.125 C-113.63283567 123.61789921 -89.54181455 76.63295256 -64.20263672 48.66210938 C-62.94520834 47.27173897 -61.70769574 45.86342051 -60.47265625 44.453125 C-47.77732489 30.03600367 -34.17060746 18.26868124 -18.25 7.5625 C-17.48800293 7.04945312 -16.72600586 6.53640625 -15.94091797 6.0078125 C-10.72360862 2.56287943 -6.43825491 -0.19218671 0 0 Z " fill="#366592" transform="translate(549.8125,46.875)"></path><path d="M0 0 C8.83349635 0.1446672 16.02558291 5.75462872 22.8125 10.875 C23.63919189 11.49125244 24.46588379 12.10750488 25.31762695 12.74243164 C32.12403944 17.88359366 38.33526307 23.42666692 44.5 29.3125 C45.90890602 30.5505545 47.32479216 31.78074705 48.75 33 C55.50635487 38.8926559 61.45326369 45.22585413 67.03125 52.24609375 C68.74588063 54.37581692 70.47135858 56.42969159 72.28125 58.47265625 C94.61177313 84.18659197 105.65808505 119.36660559 111.875 152.3125 C112.05530762 153.26350586 112.23561523 154.21451172 112.42138672 155.19433594 C112.57881348 156.07895508 112.73624023 156.96357422 112.8984375 157.875 C113.10992432 159.05255859 113.10992432 159.05255859 113.32568359 160.25390625 C113.5 162.3125 113.5 162.3125 112.5 165.3125 C112.27973145 164.64532959 112.05946289 163.97815918 111.83251953 163.29077148 C106.79687012 148.14110438 101.28107773 133.38384603 94.65820312 118.85498047 C93.60646464 116.54621052 92.57448727 114.22973033 91.546875 111.91015625 C80.65068087 87.66047454 66.72457165 64.912269 48.04052734 45.88818359 C46.42029985 44.23098102 44.82946048 42.54836306 43.23828125 40.86328125 C30.80439762 27.87276342 16.41866469 16.52123619 0.4375 8.1875 C-2.77738104 6.13544828 -3.58861793 4.9580283 -4.5 1.3125 C-3.5 0.3125 -3.5 0.3125 0 0 Z " fill="#366692" transform="translate(318.5,55.6875)"></path><path d="M0 0 C3.44579821 1.54660245 6.16391821 3.60490993 9.125 5.9375 C16.99990837 11.96458159 25.42769252 17.03462952 34 22 C34.70914551 22.41362793 35.41829102 22.82725586 36.14892578 23.25341797 C46.82697871 29.39868573 57.98407463 34.23524727 69.375 38.875 C70.05282532 39.1521283 70.73065063 39.42925659 71.42901611 39.71478271 C94.81801665 49.23235092 115.87036509 52.50082705 141 53 C140.04578192 54.14926266 139.08647955 55.29430541 138.125 56.4375 C137.59132813 57.07558594 137.05765625 57.71367188 136.5078125 58.37109375 C135 60 135 60 133 61 C95.25708839 60.86689412 54.15771609 43.75128113 24.82421875 20.74609375 C21.8029832 18.4220381 19.7327826 17.73266122 16 17 C13.53515625 14.671875 13.53515625 14.671875 11.0625 11.75 C7.57475007 7.73569889 4.16106864 4.28505419 0 1 C0 0.67 0 0.34 0 0 Z " fill="#6693C4" transform="translate(359,27)"></path><path d="M0 0 C2.77709715 0.50492675 5.35761987 1.11997273 8.0390625 2.01953125 C12.76387462 3.37708639 17.42787683 3.33003275 22.3125 3.3125 C23.6418457 3.33666992 23.6418457 3.33666992 24.99804688 3.36132812 C30.65591563 3.36545494 35.36593128 2.54547007 40.69995117 0.64526367 C43.25583691 -0.07177337 45.35747748 -0.19477984 48 0 C50.20760048 1.73337519 51.36305281 3.66150402 53 6 C53 6.66 53 7.32 53 8 C39.37924051 13.77850402 24.80272542 15.84214545 10.5625 10.875 C5.70248204 8.68236979 2.74550726 6.57584544 0 2 C0 1.34 0 0.68 0 0 Z " fill="#6793C5" transform="translate(448,528)"></path><path d="M0 0 C0.90878906 0.28875 1.81757813 0.5775 2.75390625 0.875 C15.22947685 4.56009162 26.62813643 5.47939824 39.31640625 1.75390625 C42.19347518 0.94564671 45.04717662 0.44660912 48 0 C50.25245881 2.68841859 51.88213958 4.64641875 53 8 C51.62929219 8.65489373 50.25316556 9.29844963 48.875 9.9375 C47.72644531 10.47697266 47.72644531 10.47697266 46.5546875 11.02734375 C36.25138536 14.95016062 20.19554419 14.77288934 9.9140625 10.921875 C5.67533306 8.8803645 2.67248466 7.00872699 0 3 C0 2.01 0 1.02 0 0 Z " fill="#6793C5" transform="translate(336,604)"></path><path d="M0 0 C2.77709715 0.50492675 5.35761987 1.11997273 8.0390625 2.01953125 C12.76387462 3.37708639 17.42787683 3.33003275 22.3125 3.3125 C23.6418457 3.33666992 23.6418457 3.33666992 24.99804688 3.36132812 C30.68261628 3.36547442 35.47546401 2.5267913 40.85864258 0.6940918 C43.77413772 -0.25092618 45.97748456 -0.57571723 49 0 C51.375 2.3125 51.375 2.3125 53 5 C53 5.99 53 6.98 53 8 C39.12823232 13.59737994 21.73220524 14.39494533 7.5234375 9.28125 C3.81459998 7.39812507 2.09898932 5.57605588 0 2 C0 1.34 0 0.68 0 0 Z " fill="#6894C5" transform="translate(353,528)"></path><path d="M0 0 C1.051875 0.433125 1.051875 0.433125 2.125 0.875 C7.74435212 3.07387692 12.96642988 4.55155898 19 5 C19.886875 5.07734375 20.77375 5.1546875 21.6875 5.234375 C29.25984337 5.5968808 34.92821599 3.88411189 41.87109375 0.8984375 C45 0 45 0 47.78515625 0.6640625 C50 2 50 2 52 5 C51.91015625 7.05078125 51.91015625 7.05078125 51 9 C45.59772519 12.31718628 39.27221261 13.72175027 33 14 C32.16855469 14.0515625 31.33710938 14.103125 30.48046875 14.15625 C21.1793625 14.47560129 11.29839757 13.20363793 4 7 C0 2.57894737 0 2.57894737 0 0 Z " fill="#6794C5" transform="translate(403,567)"></path><path d="M0 0 C0.90492188 0.30744141 0.90492188 0.30744141 1.828125 0.62109375 C3.02695312 1.02521484 3.02695312 1.02521484 4.25 1.4375 C5.03890625 1.70433594 5.8278125 1.97117187 6.640625 2.24609375 C7.80851562 2.61927734 7.80851562 2.61927734 9 3 C9.59167969 3.19335938 10.18335938 3.38671875 10.79296875 3.5859375 C14.20051204 4.22522881 17.60787778 4.19129337 21.0625 4.1875 C21.81748779 4.18669434 22.57247559 4.18588867 23.3503418 4.18505859 C30.01720681 4.1125695 37.09968313 3.95015844 43.1640625 0.91796875 C45 0 45 0 47.0625 0.1875 C49.39138851 1.16413066 50.57374929 1.89815684 52 4 C51.57421875 6.609375 51.57421875 6.609375 51 9 C35.15453529 13.60958973 21.14825056 14.90192566 5.4375 8.5625 C2.89172327 6.93059184 1.47960703 5.6304125 0 3 C0 2.01 0 1.02 0 0 Z " fill="#6693C4" transform="translate(464,602)"></path><path d="M0 0 C5.05311 3.05846132 9.23517107 6.82196173 13.5859375 10.8046875 C16.32390735 13.29455652 19.13301934 15.66114735 22 18 C21.67 18.66 21.34 19.32 21 20 C17.71312834 20.70385535 14.34977042 20.78687491 11 21 C9.71029297 21.15082031 9.71029297 21.15082031 8.39453125 21.3046875 C4.46742055 21.60911469 1.98393878 21.62454555 -1.40625 19.47265625 C-3.42017463 17.73883733 -5.26931697 16.01590732 -7 14 C-7 13.67 -7 13.34 -7 13 C-1.72 12.34 3.56 11.68 9 11 C7.515 9.55625 6.03 8.1125 4.5 6.625 C2.95775474 5.12559489 1.44748074 3.59108002 0 2 C0 1.34 0 0.68 0 0 Z " fill="#6491C3" transform="translate(365,67)"></path><path d="M0 0 C-3.19344884 2.6933427 -6.45318982 4.89799097 -10.0637207 6.99365234 C-18.39867347 11.91216201 -23.86061271 17.58183812 -27 27 C-30.0625 28.6875 -30.0625 28.6875 -33 30 C-32.38935223 25.6359039 -30.78981373 22.35349156 -28.6875 18.5 C-28.09324219 17.3965625 -27.49898437 16.293125 -26.88671875 15.15625 C-23.74122917 9.89423016 -21.04403995 6.64830361 -15.5625 3.8125 C-14.63566406 3.32394531 -13.70882812 2.83539063 -12.75390625 2.33203125 C-4.98683171 -1.42480906 -4.98683171 -1.42480906 0 0 Z " fill="#EFF2F8" transform="translate(562,214)"></path><path d="M0 0 C4.91292296 0.67393973 9.07678302 2.69108927 13.5625 4.6875 C21.29714844 8.07046267 29.04307035 10.70232996 37.23657227 12.74487305 C43.04688544 14.30700375 46.75913731 16.74025088 51 21 C48.20530922 22.39734539 46.84952236 21.59512892 43.875 20.75 C42.96492188 20.49734375 42.05484375 20.2446875 41.1171875 19.984375 C26.6053264 15.40168202 13.01361505 8.82850281 0 1 C0 0.67 0 0.34 0 0 Z " fill="#6593C4" transform="translate(367,58)"></path><path d="M0 0 C0.33 0 0.66 0 1 0 C1.25523437 1.28970703 1.25523437 1.28970703 1.515625 2.60546875 C3.04783553 10.07907009 4.89193192 17.21516005 7.328125 24.453125 C8 27 8 27 7 29 C6.154375 28.01 5.30875 27.02 4.4375 26 C1.73550307 23.25286231 1.21771122 23.02106883 -2.875 22.625 C-3.90625 22.74875 -4.9375 22.8725 -6 23 C-4.38911645 15.21406284 -2.23456312 7.62571782 0 0 Z " fill="#76A4CF" transform="translate(433,332)"></path><path d="M0 0 C2.91517292 1.07401108 4.77810176 1.77810176 7 4 C9.0236878 3.93612463 11.04534539 3.79958414 13.0625 3.625 C18.60668105 3.48947557 21.19220371 4.26024063 25.3125 8 C26.57312708 9.30362872 27.81452858 10.62767133 29 12 C24.54755098 14.43493306 20.99346229 15.224394 16 14 C9.6794897 10.27272291 4.39805306 5.88148188 0 0 Z " fill="#6592C3" transform="translate(325,76)"></path><path d="M0 0 C3.72300506 1.67265445 6.85021514 3.95310751 10.125 6.375 C11.17945313 7.14585938 12.23390625 7.91671875 13.3203125 8.7109375 C15.75709534 10.79250418 16.90788776 12.0472521 18 15 C14.37779259 15 13.97556358 14.38698663 11.42578125 11.97265625 C10.75869141 11.34552734 10.09160156 10.71839844 9.40429688 10.07226562 C8.71400391 9.40904297 8.02371094 8.74582031 7.3125 8.0625 C6.61060547 7.40314453 5.90871094 6.74378906 5.18554688 6.06445312 C1.44342256 2.51870851 1.44342256 2.51870851 0 1 C0 0.67 0 0.34 0 0 Z " fill="#7FA5CE" transform="translate(316,25)"></path><path d="M0 0 C3 1 3 1 4.6875 3.1875 C7.67099646 6.81607677 11.18225964 9.30348921 15 12 C14.34 12.66 13.68 13.32 13 14 C12.01 13.13375 11.02 12.2675 10 11.375 C6.13809292 8.05802459 2.10552994 5.00716738 -2 2 C-1.34 1.34 -0.68 0.68 0 0 Z " fill="#C0D3E8" transform="translate(356,25)"></path><path d="M0 0 C3.63 2.31 7.26 4.62 11 7 C10.67 7.66 10.34 8.32 10 9 C7.13132769 7.61735163 4.43975968 6.07851447 1.75 4.375 C1.04359375 3.92898437 0.3371875 3.48296875 -0.390625 3.0234375 C-0.92171875 2.68570313 -1.4528125 2.34796875 -2 2 C-1.34 1.34 -0.68 0.68 0 0 Z " fill="#9BB9D9" transform="translate(315,68)"></path><path d="M0 0 C-0.33 0.99 -0.66 1.98 -1 3 C-2.45792884 3.05399736 -3.91642712 3.09279177 -5.375 3.125 C-6.18710937 3.14820313 -6.99921875 3.17140625 -7.8359375 3.1953125 C-10 3 -10 3 -12 1 C-7.9472484 0.01751476 -4.16138263 -0.08159574 0 0 Z " fill="#7C9DC0" transform="translate(476,725)"></path><path d="M0 0 C4.03321763 1.21934486 7.54269479 2.55954927 11 5 C11 5.66 11 6.32 11 7 C6.96678237 5.78065514 3.45730521 4.44045073 0 2 C0 1.34 0 0.68 0 0 Z " fill="#91B3D6" transform="translate(352,50)"></path><path d="M0 0 C3.3 1.65 6.6 3.3 10 5 C9.34 5.66 8.68 6.32 8 7 C6.66144944 6.21718695 5.32926356 5.42348123 4 4.625 C3.2575 4.18414062 2.515 3.74328125 1.75 3.2890625 C1.1725 2.86367188 0.595 2.43828125 0 2 C0 1.34 0 0.68 0 0 Z " fill="#D2E0EE" transform="translate(343,44)"></path></svg>